<?xml version="1.0" encoding="UTF-8"?>
<!-- Generator: Adobe Illustrator 22.0.1, SVG Export Plug-In . SVG Version: 6.00 Build 0)  -->
<svg version="1.1" id="Camada_1" xmlns="http://www.w3.org/2000/svg" xmlns:xlink="http://www.w3.org/1999/xlink" x="0px" y="0px" viewBox="0 0 25 27" style="enable-background:new 0 0 25 27;" xml:space="preserve">
<style type="text/css">
	.st0{fill:#FFFFFF;}
</style>
<g>
	<path class="st0" d="M24.1,13.5c0-1.6-0.4-3.2-1-4.6l-6.6,3.1h0c-0.6-1.5-2.1-2.5-3.8-2.5c-2.3,0-4.1,1.8-4.1,4.1s1.8,4.1,4.1,4.1   c1.5,0,2.9-0.8,3.6-2.1l6.5,3C23.6,17.1,24.1,15.3,24.1,13.5z"/>
	<path class="st0" d="M13.4,1C6.8,1,1.4,6.1,0.9,12.5h5.9h0c0.5-2.8,3-4.9,5.9-4.9c1.7,0,3.3,0.7,4.3,1.9l6.6-3   C21.4,3.2,17.6,1,13.4,1z"/>
	<path class="st0" d="M13.4,26c4.1,0,7.8-2,10.1-5.1l-6.3-3.1l0,0c-1.1,1.1-2.6,1.9-4.3,1.9c-3,0-5.5-2.2-6-5.2H0.9   C1.4,20.9,6.8,26,13.4,26z"/>
</g>
</svg>